<svg width="2000" height="2000" viewBox="0 0 2000 2000" fill="none" xmlns="http://www.w3.org/2000/svg">
<g clip-path="url(#clip0_2_921)">
<rect width="2000" height="2000" rx="1000" fill="#E4D0D0"/>
<g filter="url(#filter0_d_2_921)">
<path fill-rule="evenodd" clip-rule="evenodd" d="M1661.06 1707.65C1634.8 1655.12 1541.16 1616.3 1484.06 1601.45L1004.43 1476.97H1003.29L509.952 1601.45C460.847 1614.01 372.916 1643.7 345.508 1685.96C337.514 1697.38 331.804 1709.94 327.236 1722.5L321.526 2004.57H584.724L607.02 1957.75V2004.57H955.323H1003.29H1417.82V1957.75L1440.12 2004.57H1666.77L1661.06 1707.65Z" fill="#4D5903"/>
<path d="M995.293 1685.96L692.67 1554.63C939.337 1454.14 1202.75 1512.76 1303.63 1554.63L995.293 1685.96Z" fill="#FFBE98"/>
<path d="M1096.93 1615.15H907.36C870.817 1615.15 842.268 1585.46 842.268 1550.06V1242.87C842.268 1181.2 892.515 1132.1 953.039 1132.1H1051.25C1112.92 1132.1 1162.02 1182.35 1162.02 1242.87V1550.06C1162.02 1585.46 1132.33 1615.15 1096.93 1615.15Z" fill="#FFBE98"/>
<path d="M838.492 1314.81C844.202 1337.65 1043.58 1438.91 1166.59 1314.81H838.492Z" fill="#FFAC7B"/>
<path d="M665.951 1072.46C665.951 1072.46 590.58 1074.74 558.605 959.404C526.63 842.923 590.58 845.207 627.123 876.04L665.951 1072.46Z" fill="#F3AF91"/>
<path d="M1319.16 1072.46C1319.16 1072.46 1394.53 1074.74 1426.51 959.404C1458.48 842.923 1394.53 845.207 1357.99 876.04L1319.16 1072.46Z" fill="#F3AF91"/>
<path d="M1365.29 838.653C1365.29 1097.88 1251.1 1357.11 1009 1361.68C755.479 1366.25 629.861 1096.74 629.861 838.653C629.861 579.425 643.565 375.012 997.577 378.438C1371 383.005 1365.29 579.425 1365.29 838.653Z" fill="#FFBE98"/>
<ellipse cx="1155.17" cy="789.506" rx="45.679" ry="68.5185" fill="#36180E"/>
<ellipse cx="835.416" cy="789.506" rx="45.679" ry="68.5185" fill="#36180E"/>
<path d="M1089.51 692.08C1109.89 675.235 1165.47 647.213 1224.74 669.891" stroke="#5F220D" stroke-width="45.679" stroke-linecap="round"/>
<path d="M902.127 692.08C881.746 675.235 826.167 647.213 766.898 669.891" stroke="#5F220D" stroke-width="45.679" stroke-linecap="round"/>
<path d="M1063.65 1200.62C1041.48 1215.02 983.059 1236.5 926.774 1207.19" stroke="#B64741" stroke-width="22.8395" stroke-linecap="round"/>
<path d="M989.446 858.025C979.93 922.737 957.062 980.216 961.63 989.352C967.34 1000.77 1024.44 1000.77 1041.57 989.352" stroke="#F3AF91" stroke-width="22.8395" stroke-linecap="round"/>
<path d="M1343.59 937.962C1340.06 929.195 1256.18 1233.32 1181.72 1248.15C1107.26 1262.98 1187.43 1180.77 1169.16 1149.94C1150.89 1119.11 1069.81 1073.43 1041.26 1084.85C1021.84 1092.84 1015.69 1104.26 996.72 1104.26C977.746 1104.26 970.454 1092.84 952.182 1084.85C923.633 1072.28 842.553 1117.96 824.281 1149.94C806.01 1180.77 887.09 1260.71 811.72 1248.15C736.349 1235.59 658.41 955.092 658.41 955.092C618.167 924.875 642.355 916.505 681.534 1196.76C715.794 1463.98 969.312 1461.7 997.861 1460.56C1025.27 1461.7 1279.93 1463.98 1314.19 1196.76C1348.45 914.692 1389.27 909.413 1343.59 937.962ZM997.861 1343.36C997.861 1343.36 900.134 1316.49 886.805 1248.15C879.84 1212.44 852.546 1149.23 865.392 1156.79C878.239 1164.35 995.578 1144.23 995.578 1144.23C995.578 1143.09 996.72 1140.8 996.72 1140.8C996.72 1140.8 996.72 1143.09 997.861 1144.23C997.861 1144.23 1112.34 1163.64 1128.05 1156.79C1143.75 1149.94 1122.21 1212.45 1115.2 1248.15C1101.93 1315.73 997.861 1343.36 997.861 1343.36Z" fill="#5F220D"/>
<path d="M995.294 1685.96L709.576 1543.21L664.121 1563.77L852.435 1748.77L995.294 1685.96Z" fill="white"/>
<path d="M995.294 1685.96L1281.01 1543.21L1326.47 1563.77L1138.15 1748.77L995.294 1685.96Z" fill="white"/>
<path fill-rule="evenodd" clip-rule="evenodd" d="M1006.71 1737.35C1006.71 1743.65 1001.6 1748.77 995.293 1748.77C988.986 1748.77 983.873 1743.65 983.873 1737.35C983.873 1731.04 988.986 1725.93 995.293 1725.93C1001.6 1725.93 1006.71 1731.04 1006.71 1737.35ZM994.149 1734.49C994.149 1736.07 992.871 1737.35 991.294 1737.35C989.718 1737.35 988.439 1736.07 988.439 1734.49C988.439 1732.91 989.718 1731.64 991.294 1731.64C992.871 1731.64 994.149 1732.91 994.149 1734.49ZM999.288 1737.35C1000.87 1737.35 1002.14 1736.07 1002.14 1734.49C1002.14 1732.91 1000.87 1731.64 999.288 1731.64C997.712 1731.64 996.434 1732.91 996.434 1734.49C996.434 1736.07 997.712 1737.35 999.288 1737.35ZM1002.14 1741.34C1002.14 1742.92 1000.87 1744.2 999.288 1744.2C997.712 1744.2 996.434 1742.92 996.434 1741.34C996.434 1739.77 997.712 1738.49 999.288 1738.49C1000.87 1738.49 1002.14 1739.77 1002.14 1741.34ZM991.294 1744.2C992.871 1744.2 994.149 1742.92 994.149 1741.34C994.149 1739.77 992.871 1738.49 991.294 1738.49C989.718 1738.49 988.439 1739.77 988.439 1741.34C988.439 1742.92 989.718 1744.2 991.294 1744.2Z" fill="#FFBE98"/>
<path fill-rule="evenodd" clip-rule="evenodd" d="M1006.71 1817.28C1006.71 1823.59 1001.6 1828.7 995.293 1828.7C988.986 1828.7 983.873 1823.59 983.873 1817.28C983.873 1810.98 988.986 1805.86 995.293 1805.86C1001.6 1805.86 1006.71 1810.98 1006.71 1817.28ZM994.149 1814.43C994.149 1816.01 992.871 1817.28 991.294 1817.28C989.718 1817.28 988.439 1816.01 988.439 1814.43C988.439 1812.85 989.718 1811.57 991.294 1811.57C992.871 1811.57 994.149 1812.85 994.149 1814.43ZM999.288 1817.28C1000.87 1817.28 1002.14 1816.01 1002.14 1814.43C1002.14 1812.85 1000.87 1811.57 999.288 1811.57C997.712 1811.57 996.434 1812.85 996.434 1814.43C996.434 1816.01 997.712 1817.28 999.288 1817.28ZM1002.14 1821.28C1002.14 1822.86 1000.87 1824.14 999.288 1824.14C997.712 1824.14 996.434 1822.86 996.434 1821.28C996.434 1819.7 997.712 1818.43 999.288 1818.43C1000.87 1818.43 1002.14 1819.7 1002.14 1821.28ZM991.294 1824.14C992.871 1824.14 994.149 1822.86 994.149 1821.28C994.149 1819.7 992.871 1818.43 991.294 1818.43C989.718 1818.43 988.439 1819.7 988.439 1821.28C988.439 1822.86 989.718 1824.14 991.294 1824.14Z" fill="#FFBE98"/>
<path fill-rule="evenodd" clip-rule="evenodd" d="M1006.71 1897.22C1006.71 1903.53 1001.6 1908.64 995.293 1908.64C988.986 1908.64 983.873 1903.53 983.873 1897.22C983.873 1890.92 988.986 1885.8 995.293 1885.8C1001.6 1885.8 1006.71 1890.92 1006.71 1897.22ZM994.149 1894.37C994.149 1895.94 992.871 1897.22 991.294 1897.22C989.718 1897.22 988.439 1895.94 988.439 1894.37C988.439 1892.79 989.718 1891.51 991.294 1891.51C992.871 1891.51 994.149 1892.79 994.149 1894.37ZM999.288 1897.22C1000.87 1897.22 1002.14 1895.94 1002.14 1894.37C1002.14 1892.79 1000.87 1891.51 999.288 1891.51C997.712 1891.51 996.434 1892.79 996.434 1894.37C996.434 1895.94 997.712 1897.22 999.288 1897.22ZM1002.14 1901.22C1002.14 1902.8 1000.87 1904.07 999.288 1904.07C997.712 1904.07 996.434 1902.8 996.434 1901.22C996.434 1899.64 997.712 1898.36 999.288 1898.36C1000.87 1898.36 1002.14 1899.64 1002.14 1901.22ZM991.294 1904.07C992.871 1904.07 994.149 1902.8 994.149 1901.22C994.149 1899.64 992.871 1898.36 991.294 1898.36C989.718 1898.36 988.439 1899.64 988.439 1901.22C988.439 1902.8 989.718 1904.07 991.294 1904.07Z" fill="#FFBE98"/>
<path fill-rule="evenodd" clip-rule="evenodd" d="M1006.71 1977.16C1006.71 1983.47 1001.6 1988.58 995.293 1988.58C988.986 1988.58 983.873 1983.47 983.873 1977.16C983.873 1970.85 988.986 1965.74 995.293 1965.74C1001.6 1965.74 1006.71 1970.85 1006.71 1977.16ZM994.149 1974.31C994.149 1975.88 992.871 1977.16 991.294 1977.16C989.718 1977.16 988.439 1975.88 988.439 1974.31C988.439 1972.73 989.718 1971.45 991.294 1971.45C992.871 1971.45 994.149 1972.73 994.149 1974.31ZM999.288 1977.16C1000.87 1977.16 1002.14 1975.88 1002.14 1974.31C1002.14 1972.73 1000.87 1971.45 999.288 1971.45C997.712 1971.45 996.434 1972.73 996.434 1974.31C996.434 1975.88 997.712 1977.16 999.288 1977.16ZM1002.14 1981.16C1002.14 1982.73 1000.87 1984.01 999.288 1984.01C997.712 1984.01 996.434 1982.73 996.434 1981.16C996.434 1979.58 997.712 1978.3 999.288 1978.3C1000.87 1978.3 1002.14 1979.58 1002.14 1981.16ZM991.294 1984.01C992.871 1984.01 994.149 1982.73 994.149 1981.16C994.149 1979.58 992.871 1978.3 991.294 1978.3C989.718 1978.3 988.439 1979.58 988.439 1981.16C988.439 1982.73 989.718 1984.01 991.294 1984.01Z" fill="#FFBE98"/>
<path d="M993.219 218.517C1424.89 81.4797 1390.18 451.512 1402.05 697.005C1406.86 796.596 1372.15 947.097 1350.66 947.097C1320.76 947.097 1370.07 818.054 1354.08 677.591C1320.97 379.536 1143.96 557.684 995.503 555.4C842.478 553.116 656.336 382.962 634.639 673.023C619.793 871.727 683.318 974.972 642.633 957.375C624.152 949.382 598.096 823.764 585.534 743.826C584.392 732.406 584.392 719.845 584.392 708.425V708.425C584.392 437.777 561.552 355.555 993.219 218.517Z" fill="#5F220D"/>
</g>
</g>
<defs>
<filter id="filter0_d_2_921" x="193.75" y="150" width="1614.51" height="1904.57" filterUnits="userSpaceOnUse" color-interpolation-filters="sRGB">
<feFlood flood-opacity="0" result="BackgroundImageFix"/>
<feColorMatrix in="SourceAlpha" type="matrix" values="0 0 0 0 0 0 0 0 0 0 0 0 0 0 0 0 0 0 127 0" result="hardAlpha"/>
<feOffset dy="25"/>
<feGaussianBlur stdDeviation="12.5"/>
<feComposite in2="hardAlpha" operator="out"/>
<feColorMatrix type="matrix" values="0 0 0 0 0 0 0 0 0 0 0 0 0 0 0 0 0 0 0.25 0"/>
<feBlend mode="normal" in2="BackgroundImageFix" result="effect1_dropShadow_2_921"/>
<feBlend mode="normal" in="SourceGraphic" in2="effect1_dropShadow_2_921" result="shape"/>
</filter>
<clipPath id="clip0_2_921">
<rect width="2000" height="2000" rx="1000" fill="white"/>
</clipPath>
</defs>
</svg>
